<?xml version="1.0" standalone="no"?>
<!DOCTYPE svg PUBLIC "-//W3C//DTD SVG 20010904//EN"
 "http://www.w3.org/TR/2001/REC-SVG-20010904/DTD/svg10.dtd">
<svg version="1.0" xmlns="http://www.w3.org/2000/svg"
 width="195.000000pt" height="195.000000pt" viewBox="0 0 195.000000 195.000000"
 preserveAspectRatio="xMidYMid meet">
<metadata>
Created by potrace 1.11, written by Peter Selinger 2001-2013
</metadata>
<g transform="translate(0.000000,195.000000) scale(0.100000,-0.100000)"
fill="#000000" stroke="none">
<path d="M10 959 l0 -860 443 3 c483 4 480 4 607 68 66 33 158 127 193 196 83
165 51 393 -71 505 -24 23 -73 54 -108 71 l-65 31 58 32 c179 99 243 346 143
551 -37 76 -135 171 -215 209 -107 50 -156 55 -587 55 l-398 0 0 -861z m755
521 c64 -32 90 -75 90 -151 0 -140 -123 -208 -372 -209 l-83 0 0 196 0 196
158 -4 c144 -3 161 -5 207 -28z m-5 -686 c74 -22 126 -74 135 -136 15 -98 -17
-168 -95 -208 -49 -25 -182 -42 -300 -38 l-95 3 -3 198 -2 197 153 0 c112 0
168 -4 207 -16z"/>
<path d="M1625 513 c-152 -80 -177 -276 -48 -382 36 -30 41 -31 136 -31 104 0
135 9 173 52 86 94 81 232 -12 318 -24 22 -56 45 -70 50 -39 15 -145 11 -179
-7z"/>
</g>
</svg>
